<?xml version="1.0" encoding="UTF-8"?>
<svg id="Ebene_2" data-name="Ebene 2" xmlns="http://www.w3.org/2000/svg" viewBox="0 0 704.22 291.32">
  <defs>
    <style>
      .cls-1 {
        fill: #1d1d1b;
      }
    </style>
  </defs>
  <g id="Layer_1" data-name="Layer 1">
    <g>
      <g>
        <path class="cls-1" d="M400.62,23.47c5.2,16.71,16.22,28.34,30.75,37.75,5.7,3.69,8.97,10.88,10.6,17.94,1.23,5.36,3.29,5.38,7.5,2.53,10.53-7.13,22.41-11.43,35.08-10.85,26.3,1.2,39.36,21.95,31.57,48.63-3.56,12.2-11.05,22.16-19.06,33.92,7.88-2.07,13.41-5.99,16.14-11.16,5.66-10.74,12.39-20.64,14.89-33.55,2.12-10.96,2.73-19.64-2.6-29.38-3.55-6.49-1.57-13.91.51-20.71,3.78-12.41,15.58-17.5,27.19-11.64,6.93,3.5,13.75,7.42,21.54,8.24,10.76,1.13,20.97,3.31,30.96-5.87,11-10.11,32.34-6.59,42.01,5.02,3.89,4.66,8.13,7.14,13.94,8.82,16.88,4.86,24.55,16.04,23.7,31.73-.45,8.22-5.55,13.14-11.69,17.63,3.14,3.15,6.36,1.68,9.16,2.17,15.29,2.65,22.83,13.41,21.19,28.53-2.09,19.21-10.26,36.03-18.86,52.8-1.71,3.33-5.03,6.28.27,10.16,14.75,10.79,16.1,26.33,10.77,41.7-10.23,29.48-39.41,48.17-75.02,42.44-14.58-2.34-28.44-19.62-28.72-36.3-.16-9.94-3.82-10.03-11.27-7.58-17.31,5.68-33.28,14.46-50.09,21.26-18.13,7.34-36.43,13.3-56.7,9.15-20.66-4.23-34.6-22.69-30.64-43.57,1.13-5.96-.2-8.26-5.61-8.82-15.49-1.6-28.73-6.72-36.36-21.63-2.81-5.48-6.31-1.63-9.14.19-10.34,6.68-21.06,11.49-33.88,11.15-13.27-.36-24.52-4.39-32.38-15.34-2.98-4.15-4.73-4.33-8.39-.85-11.56,10.96-25.06,16.71-41.36,14.05-2.63-.43-5.31-.48-7.83,1.01-13.42,7.91-25.96,3.95-37.66-3.71-3.87-2.53-6.08-1.96-9.78-.29-15.54,7-31.17,4.11-41.51-7.1.53-1.68,1.6-2.72,3.42-2.87,12.9,6.13,25.81,9.37,39.43,1.64,4.25-2.41,8.38,0,12.18,2.54,10.1,6.74,20.57,10.08,31.93,2.72,3.04-1.97,6.45-1.63,9.81-1.1,14.33,2.27,26.33-2.1,36.97-11.87,7.81-7.17,10.47-6.64,17.53,1.02,12.61,13.67,29.6,17.22,46.72,9.81,4.35-1.88,8.18-4.66,12.24-7.03,9.23-5.38,13.65-4.55,18.98,4.74,4.99,8.68,12.54,12.71,21.81,14.72,4.62,1,9.39.92,13.95,2.21,5.67,1.59,8.33,4.55,6.93,11.09-5.14,24.06,7.93,40.97,32.59,42.17,11.93.58,23.3-2.63,34.48-6.59,17.79-6.3,34.05-16.17,52.01-22.07,4.15-1.37,8.19-3.12,12.44-4.15,10.27-2.47,14.75.53,15.55,10.96.6,7.9,2.38,15,7.29,21.57,10.3,13.77,24.56,14.17,39.24,11.91,26.1-4.02,46.58-28.41,45.27-52.78-.38-7.08-2.86-12.93-8.11-17.84-8.63-8.08-8.76-10.38-3.14-20.82,8.16-15.15,15.38-30.61,17.89-47.95,1.11-7.68.32-14.2-6.6-18.6-7.74-4.92-16.56-6.11-23.68-.39-8.64,6.94-15.31,6.68-22.62-1.14-2.82-3.02-6.99-3.86-10.91-4.95-5.48-1.52-11.82-2.3-10.49-10.62,1.22-7.67,9.12-14.25,16.41-13.55,4.62.44,8.07,2.85,11.11,6.28,7.31,8.26,15.35,9.16,22.42,2.75,6.79-6.16,7.51-17.52,1.29-24.68-4.28-4.93-9.72-8.37-16.07-9.97-6.44-1.62-11.43-4.99-15.9-9.97-8.19-9.14-22.92-11.94-32.01-4.34-13.66,11.41-28.01,8.91-42.94,5.56-5.28-1.18-10.1-3.65-15.01-5.88-10.89-4.95-16.9-1.89-20.26,9.75-2.12,7.33-1.14,14.23,3.21,20.21,4.53,6.23,3.14,11.72,1.58,18.77-2.87,12.97-7.46,24.75-13.84,36.34-6.12,11.11-15.89,17.07-26.29,22.6-3.31,1.76-7.46,2.32-9.99-1.52-2.21-3.36-.23-6.53,2.04-9.14,7.1-8.16,13.65-16.66,17.88-26.74,5.53-13.21,9.75-27.04-1.81-38.65-10.93-10.98-24.89-10.06-38.75-5.27-5.49,1.9-10.08,5.34-15.09,8.09-7.36,4.03-11.6,3.01-14.23-4.75-4.71-13.92-13.47-23.66-26.52-30.19-11.1-5.56-9.4-17.62-12.73-27.11.42-1.71,1.49-2.81,3.17-3.3Z"/>
        <path class="cls-1" d="M400.62,23.47c-.68.82-1.36,1.63-2.03,2.45-5.98-1.18-7.85-6.95-11.65-10.54-8.54-8.07-11.6-8.84-21.63-2.42-5.87,3.76-11.76,1.48-17.62,1.49-12.5.02-13.03.31-15.21,12.8-1.59,9.16-10.93,13.82-18.02,7.79-15.39-13.06-32.84-11.33-50.65-9.12-8.93,1.11-17.48,4.97-26.75,3.66-2.11-.72-3.97-1.77-4.95-3.91,20.29-6.64,41.13-9.35,62.38-7.65,8.46.68,15.98,4.4,22.65,9.98,4.4,3.68,7.8,3.64,8.13-3.7.64-14.42,7.5-20.05,22.35-17.72,7.27,1.14,13.36,1.59,19.39-3.99,4.8-4.44,10.94-2.53,15.79.97,7.35,5.29,14.17,11.24,17.84,19.92Z"/>
        <path class="cls-1" d="M95.03,20.24c-4.69,4.11-11.45-1-16.04,3.57-2,3.64-5.92,4.18-9.23,5.64-20.94,9.27-39.15,21.96-52.72,40.83-5.89,8.2-8.97,17.26-9.95,27.09-1.41,14.16,5.22,24.12,18.82,29.88,4.95,2.1,13.52,2.67,7.45,11.95-4.16,1.53-3.36-2.49-4.65-4.17-23.82-2.92-33.82-26.76-26.22-50.28,8.45-26.16,28.41-42.3,51.39-55.29,12.76-7.21,26.01-12.49,41.14-9.22Z"/>
        <path class="cls-1" d="M28.72,135.04c1.3,1.37,2.6,2.74,3.9,4.11,2.65,4.17-.17,7.75-1.35,11.43-3.66,11.49-7.83,22.71-8.28,35.1-1.35,37.01,24.34,44.14,51.47,35.13,2.87-.95,5.34-2.92,8.25-3.72,4.97-1.37,9.39-1.03,11.3,4.9-.4,1.78-1.12,3.1-3.3,2.29-3.77-2.1-6.82-.28-10.29,1.31-9.56,4.39-19.9,6.8-30.26,5.67-20.34-2.21-32.12-15.3-34.26-35.87-1.84-17.65,4.02-33.7,9.64-49.87,1.2-3.44,3.5-6.57,3.18-10.48Z"/>
        <path class="cls-1" d="M90.71,224.27c.8-.73,1.6-1.45,2.4-2.18,2.23-1.52,4.58-.81,6.78-.1,21.56,6.94,38.59-2.23,54.37-15.42,4.88-4.08,8.8-9.28,13.8-13.24,7.45-5.9,11.99-3.87,14.19,6.04-.81.84-1.61,1.68-2.42,2.53-3.18-4.73-5.68-5.81-10.3-.59-13.03,14.73-27.98,26.4-48.54,29.44-11.3,1.67-21.05-.27-30.29-6.47Z"/>
        <path class="cls-1" d="M171.91,54.26c-2.56-.63-1.03,9.35-6.05,2.34,3.85-2.54.57-5.45.25-8.06-2.91-23.79,17.97-42.54,39.16-34.86,3.05,1.11,6.86,2.64,8.33,5.14,4.51,7.67,10.82,8.68,18.5,6.86,1.68.37,3.51.43,4.51,2.2-8.26,7.6-16.63,8.06-23.38.6-6.89-7.62-14.44-12.23-24.84-7.95-9.74,4-15.55,14.28-15.08,26.18.1,2.66.94,5.38-1.4,7.56Z"/>
        <path class="cls-1" d="M663.17,115.62c-3.99,6.83-6.93,9.35-12.03,4.34-4.15-4.07-9.78-5.67-15.06-7.9-2.06-.87-8.44.96-5.29-5.35,2.09-4.18,4.78-7.74,10.19-4.76,1.68.93,3.37,2.28,4.41,3.86,3.87,5.88,8.59,10.31,17.78,9.8Z"/>
        <path class="cls-1" d="M174.25,54.7c-3.78-3.66-5.2,3.06-8.39,1.9-14.82-12.83-29.19-5.62-43.76,2.13-2.17-18.52-6.34-34.54-27.07-38.48-5.06,2.97-12.13-2.88-16.35,3.74,3.57,3.44,8.21,2.32,12.44,2.91,11.13,1.56,19.07,8.55,21.95,19.38,1.04,3.92,1.23,7.96,1.86,11.93,1.22,7.71,4.73,9.61,11.98,6.72,2.18-.87,4.18-2.16,6.23-3.3,8.38-4.67,17.19-7,25.73-1.26,8.69,5.85,10.28,15.25,10,25.01-.11,4.01-1.63,7.94-.85,12.01.61,3.18,2.09,5.82,5.63,6.2,3.1.33,4.8-1.87,6.27-4.25,8.64-14.02,6.28-32.72-5.66-44.63ZM176.64,84.97c-1.25-6.36-2.51-12.73-4.14-20.99,11.46,6.48,4.35,14.26,4.14,20.99Z"/>
        <path class="cls-1" d="M652.79,213.36c10.62,1.1,22.48-.33,26.9,12.06,4.54,12.71-.36,24.23-8.93,33.41-10.36,11.1-23.19,18.05-39.17,17.78-15.12-.26-23.84-7.02-26.62-21.87-1.18-6.31-1.41-12.78.66-18.98,2.24-6.74-.71-8.25-6.8-7.95-21.74,1.09-40.95,10.23-60.03,19.24-19.33,9.13-38.57,17.49-60.68,15.65-13.19-1.1-23.09-10.92-22.81-23.36.1-4.39.82-8.81,6.88-6.62,23.37,8.42,45.83,1.44,68.26-4.05,22.17-5.44,44.07-12.13,67.12-12.9,3.02-.1,6.06-.24,9.07-.04,11.27.74,12.76,2.86,10.09,13.95-4.18,17.36,3.95,26.6,21.74,24.08,12.46-1.76,22.84-7.56,30.38-18,3.7-5.12,2.42-8.64-3.59-8.89-11.23-.46-22.3.87-30.44,9.98-2.37,2.65-3.31,7.27-8.27,4.02-4.28-2.81-6.85-6.55-5.26-11.92,1.18-4,3.81-6.98,7.06-9.58,5.08-4.07,17.42-23.44,20.2-32.43-5.56,6.37-9.69,11.12-13.83,15.85-5.96,6.81-13.48,9.21-21.83,5.97-8.34-3.24-10.84-10.85-10.47-19,1-22.14,10.24-41.55,21.44-60.07,3.28-5.43,8.36-2.74,12.58-.62,5.56,2.79,8.02,7.3,5.44,13.32-2.65,6.17-5.9,12.08-8.72,18.18-2.55,5.51-4.79,11.15-4.35,17.41.2,2.84-1.05,6.42,2.97,7.68,2.98.93,5.19-.8,7.05-2.87,11.36-12.62,21.18-26.44,25.51-42.93,2.16-8.24,5.32-11.85,13.6-10.59,9.69,1.48,10.7,8.26,8.89,15.83-5.56,23.17-15.02,44.52-30.82,62.71-1.26,1.45-3.36,2.38-3.19,5.56Z"/>
        <path class="cls-1" d="M366.13,62.12c-14.67-3.72-27.05-.02-41.55,6.45,7.8-12.03,18.52-14.39,29.9-18.19-9.16-7.17-18.7-2.83-27.06-4.82,7.25-7.22,11.63-7.49,40.69-2.25-6.18-11.07-18.51-13.2-28.56-21.16,19.65-1.84,30.95,8.07,40.99,22.66,1.29-10.49-3.67-17.56-7.25-27.71,12.6,9.75,18.29,20.32,18.4,33.55.05,5.78,1.93,8.4,7.61,9.57,13.68,2.81,21.95,11.79,27.78,26.83-8.45-6.23-12.47-15.34-23.49-14.74,4.68,11.39,9.25,22.46,4.63,36.55-4.54-10.91-4.08-22.25-13.7-31.03-1.36,9.87,1.14,19.48-7.12,26.86-1.32-7.68,2.91-14.86-1.79-21.71-5.12,4.31-5.81,12-13.07,14.55-1.27-6.32,3.26-11.41,3.25-17.16,0-2.91,1.59-6.86-1.15-8.47-3.24-1.9-5.15,2.1-7.25,3.99-11.87,10.7-18.58,24.46-23.37,39.43-5.44,16.99-12.13,33.49-20.69,49.19-6.57,12.03-15.41,21.99-27.02,29.41-7.72,4.94-15.86,5.62-23.95,1.53-7.84-3.97-9.7-11.26-9.95-19.54-.61-20.75,8.54-38.45,17.36-56.16,3.87-7.78,10.88-5.38,16.68-2.28,6.3,3.38,6.71,8.64,2.89,14.49-6.79,10.43-13.79,20.75-20.09,31.48-2.7,4.6-7.84,10.92-2.18,15.29,4.81,3.71,9.55-2.35,13.87-5.37,7.16-5.01,11.35-12.25,15.43-19.65,17.6-31.89,29.96-67.14,59.75-91.56Z"/>
        <path class="cls-1" d="M562.04,178.69c.06-10.94,3.34-21.21,7.2-31.22,7.01-18.17,14.54-36.14,21.77-54.23.8-2.01,3.33-4.46,1.09-6.19-1.43-1.11-4.48-.46-6.73-.12-10.92,1.66-21.71,4.37-32.89,1.43-11.01-2.9-17.63-10.38-16.43-19.7.87-6.8,3.24-10.78,11.29-6.6,14.31,7.44,30.09,8.99,45.9,10.14,5.85.42,9.81-1.26,13.63-6.25,9.25-12.11,24.06-9.75,29.48,4.56,1.58,4.16,4.18,3.39,6.98,3.91,6.95,1.27,14.03,2.59,19.65,7.17,4.7,3.83,8.15,8.95,3.78,14.83-2.72,3.67-6.66,7.39-10.99.65-5.17-8.04-13.89-10.13-22.46-12.09-5.03-1.15-8.79.25-11.89,5.03-18.08,27.9-32.14,57.46-38.49,90.33-.99,5.1-.13,9.9,1.76,14.77,1.92,4.98-.54,6.8-5.58,6.04-11.1-1.67-17.07-9.47-17.06-22.47Z"/>
        <path class="cls-1" d="M70.96,86.69c6.02-10.17,12.04-20.34,18.17-30.71-4.78-2.06-7.69,1.07-10.72,2.65-17.07,8.88-29.43,22.11-36.06,40.38-1.2,3.3-3.89,6.27,1.68,8.97,4.51,2.19.63,5.39-1.28,7.05-5.38,4.66-11.69,6.36-18.77,4.19-7.11-2.17-9.97-7.86-11.1-14.34-1.55-8.93.63-17.33,5.23-25.16,12.14-20.63,30.36-34.19,52.07-42.78,18.85-7.46,37.33-3.14,32.72,27.4-6.72,5.48-12.95,11.41-18.1,18.46-2.35,3.21-5.07,6.33-8.79,7.96-3.73,1.63-6.6,1.3-5.07-4.06Z"/>
        <path class="cls-1" d="M70.96,86.69c1.18,5.87,3.94,3.03,5.97.85,5.42-5.82,10.57-11.89,15.91-17.79,2.69-2.97,5.42-6.03,10.07-5.41-4.4,17.43-14.56,32.36-21.27,48.8-8.37,20.52-16.9,40.96-22.83,62.37-4.59,2.59-5.11,7.1-6.27,11.73-2.47,9.91-8.6,17.42-17.49,22.58-7.39-8.3-7.79-18.36-6.33-28.45,3.85-26.71,16.38-50.12,28.98-73.41,3.96-7.33,8.81-14.18,13.25-21.25Z"/>
        <path class="cls-1" d="M566.79,94.33c1.02.2,4.26.17,6.83,1.48,5.58,2.83,7.67,7.16,1.49,11.36-7.74,5.26-15.89,9.95-24.01,14.64-3.54,2.05-6.56-.21-9.06-2.44-3.47-3.1-3.23-7.19-1.91-11.2,2.8-8.47,12.7-13.97,26.66-13.84Z"/>
        <path class="cls-1" d="M546.18,127.16c-7.2-4.26-10.41.08-13.23,5.69-1.36,2.7-2.83,5.35-4.19,8.05-11.75,23.25-47.08,41.98-72.56,38.47-11.41-1.57-19.45-9.12-19.14-19.81.59-20.41,6.55-38.98,21.52-53.8,3.49-3.45,7.29-6.71,12.38-3.83,4.94,2.8,4.55,7.96,3.71,12.66-1.96,10.98-7.69,19.89-15.51,27.7-2.26,2.26-5.16,5.15-2.99,8.78,2.1,3.51,6.06,2.63,9.22,1.97,3.22-.67,6.62-1.8,9.28-3.66,14.47-10.1,23.53-24.1,26.41-41.35,2.33-14-4.98-21.12-19.42-21.82-11.46-.56-20.98,3.68-29.85,10.22-15.88,11.72-27.54,27.1-34.15,45.33-5.04,13.91-15.18,21.66-26.44,28.99-7.05,4.59-14.58,8.62-22.91,10.2-6.33,1.2-11.61-1.43-13.21-8.03-1.74-7.18,5.11-5.94,8.56-6.99,17.13-5.24,28.55-16.07,33.46-33.27,3.04-10.64-2.74-17.79-13.87-18.04-4.84-.11-9.28,1.14-13.49,3.53-18.86,10.72-30.35,27.02-36.42,47.55-2.96,10.03-2.51,19.85,5.18,27.24,8.19,7.87,18.71,8.56,29.26,4.96,11.35-3.88,20.71-10.87,29.13-19.34,3.12-3.14,5.5-7.8,11.75-7.7,0,3.55-.25,6.9.04,10.22,1.37,15.68,7.6,25.08,20.6,27.57,13.19,2.52,26.65,3.05,39.82-1.9,18.4-6.91,32.78-19.03,46.31-35.8-1.01,8.11-1.8,13.92-2.43,19.74-1.9,17.34,5.7,24.41,22.49,20.76,5.02-1.09,9.24-2.77,4.96-9.42-2.36-3.66-2.41-8.25-2.58-12.7-.65-16.95,7.14-31.26,14.24-45.69,3.98-8.09.72-12.55-5.92-16.47ZM369.14,131.15c1.35-1.51,3.27-2.7,5.38-1.65,2.21,1.1,1.75,3.38,1.62,5.34-.59,8.62-9.82,18.87-20.05,21.75,1.14-10.4,6.55-18.21,13.05-25.43Z"/>
        <path class="cls-1" d="M307.45,45.25c-1.09-6.91-6.51-9.59-12.7-11.33-4.6-1.3-9.19-1.78-13.93-1.82-22.08-.17-42.97,7.08-64.47,10.51-6.16.98-9.49,2.05-11.24-5.87-1.95-8.83-9.79-12.26-16.96-8.96-5.99,2.75-9.25,7.84-9.7,14.29-.45,6.36,1.12,12.59,7.56,15.18,6.06,2.43,6.72,6.48,6.22,11.94-2.27,24.77-10.53,47.82-20.79,70.12-8.73,18.99-18.78,37.25-37.83,48.52-7.21,4.27-13.02,5.05-17.94-2.79-10.11,5.34-14,17.23-23.94,22.76,4.06,6.35,10.45,8.05,17.34,8.37,17.55.8,30.93-7.88,42.57-19.68,21.06-21.36,33.58-47.63,42.06-75.97,5.1-17.05,8.72-34.47,11.15-52.14.48-3.47.09-8.03,6.34-8.44,20.44-1.34,40.82-4.07,61.26-4.63,8.48-.23,19.56-2,23.43,10.59,1.21,3.92,3.77,1,5.35-.38,6.25-5.43,7.42-12.68,6.22-20.27ZM191.8,43.51c-2.58.15-3.34-1.8-3.54-3.9-.14-1.38.35-2.85,1.94-3,2.71-.25,3.1,1.93,3.54,3.73-.05,1.57-.3,3.06-1.95,3.16Z"/>
        <path class="cls-1" d="M151.55,66.04c-6.64-3.79-13.12-1.12-18.84,2.86-8.43,5.86-14.82,13.72-19.69,22.65-13.31,24.4-22,50.43-26.13,77.92-1.64,10.9-7.68,18.34-18.31,21.26-6.17,1.69-9.94-.1-9.81-7.16.05-2.69.03-5.37.04-8.06-3.94-1.03-6.15,1.91-6.53,4.54-1.8,12.33-10.77,20.28-17.23,29.77,1.19,1.11,2.19,2.66,3.59,3.27,14.69,6.44,28.21,3.09,40.7-5.69,4.6-3.23,8.42-5.71,12.37.4,13.15-2.15,16.3-14.82,23.94-22.76-2.45-7.96-.9-14.33,4.82-21.06,7.56-8.9,13.7-19.08,19.8-29.11,9.7-15.95,16.86-32.97,17.99-51.89.39-6.45-.38-13.32-6.71-16.93ZM148.05,92.71c-5.77,19.29-16.74,35.52-30,50.55,3.01-23.03,10.11-44.5,21.92-64.32,1.33-2.23,2.85-5.09,6.12-4.33,3.7.87,3.76,4.17,3.95,7.27.23,3.79-.93,7.27-1.99,10.83Z"/>
        <path class="cls-1" d="M249.93,133.66c-2.41-.95-4.65-.76-5.55-4.45-3.76-15.42-14.67-19.9-27.16-10.39-19.76,15.06-28.78,36.49-32.87,56.69-.03,16.25,5.98,22.02,18.55,22.22,9.05.15,15.05-5.1,20.83-10.79,3.83-3.76,5.69-4.79,7.78,1.75,3.01,9.43,10.61,13.4,20.4,13.18,3.03-.07,5.91-.62,3.74-4.59-8.41-15.4-3.11-29.99,2.36-44.6,3.67-9.8,1.46-15.27-8.1-19.02ZM220.4,171.35c-4.74,2.3-9.54,3.84-14.19.29-4.35-3.32-4.26-8.34-3.16-12.93,2.63-10.97,8.02-20.59,16.12-28.47,2.61-2.54,6-4.92,9.92-2.61,4.28,2.52,2.62,6.13,1.3,9.73-2.51,6.86-2.41,6.9,7.36,6.84-1.86,12.14-6.33,21.8-17.37,27.15Z"/>
      </g>
      <g>
        <path class="cls-1" d="M58.51,237.5h6.9v15.77l12.94-15.77h8.29l-13.18,16.04,13.32,16.8h-8.82l-12.53-16.33v16.33h-6.9v-32.84Z"/>
        <path class="cls-1" d="M96.47,270.35h-7.22v-32.84h7.22v32.84Z"/>
        <path class="cls-1" d="M110.47,243.27h-10.61v-5.72h28.42v5.72h-10.66v27.08h-7.15v-27.08Z"/>
        <path class="cls-1" d="M145.17,243.11c-2.86,0-4.92.91-6.18,2.73-1.26,1.82-1.89,4.8-1.89,8.96,0,3.6.6,6.14,1.81,7.62,1.21,1.47,3.29,2.21,6.26,2.21h11.35v5.72h-11.68c-2.58,0-4.6-.22-6.08-.66-1.47-.44-2.86-1.18-4.16-2.22-1.68-1.34-2.95-3.09-3.79-5.24-.84-2.15-1.26-4.73-1.26-7.72,0-5.81,1.26-10.09,3.78-12.86,2.52-2.76,6.42-4.14,11.71-4.14h11.48v5.61h-11.35Z"/>
        <path class="cls-1" d="M168.49,237.5v13.32h12.67v-13.32h6.9v32.84h-6.9v-13.72h-12.67v13.72h-6.9v-32.84h6.9Z"/>
        <path class="cls-1" d="M208.39,243.22c-2.5,0-4.38.63-5.66,1.88-1.27,1.25-1.97,3.17-2.11,5.74l19.1.02v5.72h-19.15c.01,2.86.62,4.91,1.82,6.17,1.2,1.25,3.19,1.88,5.99,1.88h11.34v5.72h-11.67c-2.58,0-4.6-.22-6.07-.66-1.47-.44-2.86-1.18-4.15-2.22-1.68-1.34-2.94-3.09-3.78-5.24-.84-2.15-1.26-4.73-1.26-7.72,0-5.81,1.26-10.09,3.77-12.86,2.52-2.76,6.42-4.14,11.7-4.14h11.47v5.72h-11.34Z"/>
        <path class="cls-1" d="M225.78,237.5h8.74l13.45,23.59-.34-23.59h7.06v32.84h-8.02l-14.12-24.84.31,24.84h-7.08v-32.84Z"/>
        <path class="cls-1" d="M307.08,256.85c-1.09,4.8-3,8.34-5.74,10.65-2.74,2.3-6.44,3.45-11.1,3.45-3.71,0-6.63-.8-8.77-2.41-2.14-1.61-3.21-3.8-3.21-6.57,0-1.65.37-3.12,1.11-4.4.74-1.28,1.84-2.38,3.32-3.28-1.47-.91-2.59-2.05-3.34-3.42-.75-1.37-1.13-2.93-1.13-4.67,0-2.73.87-4.86,2.61-6.39,1.74-1.53,4.18-2.3,7.31-2.3h11.08v6.08h-9.34c-1.5,0-2.7.34-3.57,1.02-.88.68-1.32,1.57-1.32,2.69,0,1.25.36,2.22,1.08,2.9s1.75,1.03,3.07,1.03h2.23v5.63h-2.15c-1.18,0-2.13.35-2.85,1.06-.72.71-1.08,1.65-1.08,2.83,0,1.31.48,2.36,1.44,3.15.96.79,2.25,1.18,3.88,1.18,2.47,0,4.46-.67,5.98-2.02,1.51-1.35,2.59-3.41,3.25-6.2h-4.62v-5.63h15.93v5.63h-4.07Z"/>
        <path class="cls-1" d="M351.72,270.35h-18.07v-32.84h16.87c2.13,0,3.86.12,5.19.36,1.33.24,2.41.62,3.23,1.14,1.21.76,2.13,1.74,2.76,2.95.63,1.21.95,2.58.95,4.11,0,1.83-.39,3.38-1.18,4.66-.79,1.27-2.03,2.34-3.71,3.21,1.7.72,2.95,1.68,3.76,2.89.81,1.21,1.22,2.74,1.22,4.57,0,3.07-.89,5.33-2.68,6.78-1.79,1.45-4.57,2.18-8.33,2.18ZM340.55,243.4v7.6h10.1c1.56,0,2.71-.31,3.44-.93.73-.62,1.09-1.57,1.09-2.87s-.37-2.27-1.09-2.88c-.73-.61-1.88-.92-3.44-.92h-10.1ZM350.75,264.54c1.58,0,2.73-.31,3.44-.93.71-.62,1.07-1.59,1.07-2.92s-.36-2.32-1.08-2.95c-.72-.63-1.87-.94-3.43-.94h-10.21v7.73h10.21Z"/>
        <path class="cls-1" d="M377.59,237.5h7.33l14.01,32.84h-7.69l-3.02-7.82h-14.28l-2.93,7.82h-7.33l13.9-32.84ZM380.98,244.03l-4.8,12.65h9.79l-4.98-12.65Z"/>
        <path class="cls-1" d="M401.22,237.5h17c3.96,0,6.87.8,8.71,2.39,1.85,1.59,2.77,4.09,2.77,7.48,0,2.52-.57,4.57-1.71,6.17-1.14,1.59-2.78,2.62-4.93,3.08l8.2,13.72h-7.77l-7.24-12.91h-8.13v12.91h-6.9v-32.84ZM416.59,243.36h-8.47v8.27h8.47c2.29,0,3.89-.31,4.78-.94.89-.63,1.34-1.7,1.34-3.22s-.44-2.57-1.31-3.18c-.87-.62-2.48-.93-4.81-.93Z"/>
      </g>
    </g>
  </g>
</svg>