<?xml version="1.0" encoding="UTF-8" standalone="no"?>
<!-- Created with Inkscape (http://www.inkscape.org/) -->

<svg
   version="1.1"
   id="svg636"
   xml:space="preserve"
   width="682.66669"
   height="682.66669"
   viewBox="0 0 682.66669 682.66669"
   xmlns="http://www.w3.org/2000/svg"
   xmlns:svg="http://www.w3.org/2000/svg"><defs
     id="defs640"><clipPath
       clipPathUnits="userSpaceOnUse"
       id="clipPath650"><path
         d="M 0,512 H 512 V 0 H 0 Z"
         id="path648" /></clipPath></defs><g
     id="g642"
     transform="matrix(1.3333333,0,0,-1.3333333,0,682.66667)"><g
       id="g644"><g
         id="g646"
         clip-path="url(#clipPath650)"><g
           id="g652"
           transform="translate(467.0947,226)"><path
             d="M 0,0 C 16.568,0 30,-13.431 30,-30 30,-46.569 16.568,-60 0,-60 h -31 c -33.137,0 -26.863,-30 -60,-30 -33.137,0 -26.863,30 -60,30 -33.137,0 -26.863,-30 -60,-30 -33.137,0 -26.863,30 -60,30 -33.137,0 -26.863,-30 -60,-30 -33.137,0 -27.863,30 -61,30 -33.137,0 0,0 0,0 h -30 c -16.568,0 -30,13.431 -30,30 0,16.569 13.432,30 30,30"
             style="fill:none;stroke:#000000;stroke-width:30;stroke-linecap:round;stroke-linejoin:round;stroke-miterlimit:10;stroke-dasharray:none;stroke-opacity:1"
             id="path654" /></g><g
           id="g656"
           transform="translate(467.0947,226)"><path
             d="m 0,0 h -422 c -16.568,0 -30,13.431 -30,30 0,16.569 13.432,30 30,30 H 0 C 16.568,60 30,46.569 30,30 30,13.431 16.568,0 0,0 Z"
             style="fill:none;stroke:#000000;stroke-width:30;stroke-linecap:round;stroke-linejoin:round;stroke-miterlimit:10;stroke-dasharray:none;stroke-opacity:1"
             id="path658" /></g><g
           id="g660"
           transform="translate(45.0947,286)"><path
             d="M 0,0 C 0,132.548 95.021,180 211,180 326.979,180 422,132.548 422,0"
             style="fill:none;stroke:#000000;stroke-width:30;stroke-linecap:round;stroke-linejoin:round;stroke-miterlimit:10;stroke-dasharray:none;stroke-opacity:1"
             id="path662" /></g><g
           id="g664"
           transform="translate(181.0947,346)"><path
             d="m 0,0 c 0,-8.284 -6.716,-15 -15,-15 -8.284,0 -15,6.716 -15,15 0,8.284 6.716,15 15,15 C -6.716,15 0,8.284 0,0"
             style="fill:#000000;fill-opacity:1;fill-rule:nonzero;stroke:none"
             id="path666" /></g><g
           id="g668"
           transform="translate(361.0947,346)"><path
             d="m 0,0 c 0,-8.284 -6.716,-15 -15,-15 -8.284,0 -15,6.716 -15,15 0,8.284 6.716,15 15,15 C -6.716,15 0,8.284 0,0"
             style="fill:#000000;fill-opacity:1;fill-rule:nonzero;stroke:none"
             id="path670" /></g><g
           id="g672"
           transform="translate(301.0947,376)"><path
             d="m 0,0 c 0,-8.284 -6.716,-15 -15,-15 -8.284,0 -15,6.716 -15,15 0,8.284 6.716,15 15,15 C -6.716,15 0,8.284 0,0"
             style="fill:#000000;fill-opacity:1;fill-rule:nonzero;stroke:none"
             id="path674" /></g><g
           id="g676"
           transform="translate(241.0947,406)"><path
             d="m 0,0 c 0,-8.284 -6.716,-15 -15,-15 -8.284,0 -15,6.716 -15,15 0,8.284 6.716,15 15,15 C -6.716,15 0,8.284 0,0"
             style="fill:#000000;fill-opacity:1;fill-rule:nonzero;stroke:none"
             id="path678" /></g><g
           id="g680"
           transform="translate(467.0947,166)"><path
             d="m 0,0 c 0,-66.274 -54.726,-120 -121,-120 h -180 c -66.274,0 -121,53.726 -121,120"
             style="fill:none;stroke:#000000;stroke-width:30;stroke-linecap:round;stroke-linejoin:round;stroke-miterlimit:10;stroke-dasharray:none;stroke-opacity:1"
             id="path682" /></g></g></g></g></svg>
