<?xml version="1.0" encoding="UTF-8" standalone="no"?>
<!-- Created with Inkscape (http://www.inkscape.org/) -->

<svg
   version="1.1"
   id="svg633"
   xml:space="preserve"
   width="682.66669"
   height="682.66669"
   viewBox="0 0 682.66669 682.66669"
   xmlns="http://www.w3.org/2000/svg"
   xmlns:svg="http://www.w3.org/2000/svg"><defs
     id="defs637"><clipPath
       clipPathUnits="userSpaceOnUse"
       id="clipPath647"><path
         d="M 0,512 H 512 V 0 H 0 Z"
         id="path645" /></clipPath><clipPath
       clipPathUnits="userSpaceOnUse"
       id="clipPath667"><path
         d="M 0,512 H 512 V 0 H 0 Z"
         id="path665" /></clipPath></defs><g
     id="g639"
     transform="matrix(1.3333333,0,0,-1.3333333,0,682.66667)"><g
       id="g641"><g
         id="g643"
         clip-path="url(#clipPath647)"><g
           id="g649"
           transform="translate(303.8105,498.5356)"><path
             d="M 0,0 -9.67,-42.926"
             style="fill:none;stroke:#000000;stroke-width:20;stroke-linecap:round;stroke-linejoin:round;stroke-miterlimit:10;stroke-dasharray:none;stroke-opacity:1"
             id="path651" /></g><g
           id="g653"
           transform="translate(229.7671,502)"><path
             d="M 0,0 23.498,-37.182"
             style="fill:none;stroke:#000000;stroke-width:20;stroke-linecap:round;stroke-linejoin:round;stroke-miterlimit:10;stroke-dasharray:none;stroke-opacity:1"
             id="path655" /></g></g></g><g
       id="g657"
       transform="translate(372.2246,469.9282)"><path
         d="M 0,0 -37.209,-23.527"
         style="fill:none;stroke:#000000;stroke-width:20;stroke-linecap:round;stroke-linejoin:round;stroke-miterlimit:10;stroke-dasharray:none;stroke-opacity:1"
         id="path659" /></g><g
       id="g661"><g
         id="g663"
         clip-path="url(#clipPath667)"><g
           id="g669"
           transform="translate(271.4507,343.6904)"><path
             d="m 0,0 c -25.46,18.851 -67.692,20.265 -94.365,3.146 -26.673,-17.118 -68.905,-15.674 -94.337,3.176"
             style="fill:none;stroke:#000000;stroke-width:20;stroke-linecap:round;stroke-linejoin:round;stroke-miterlimit:10;stroke-dasharray:none;stroke-opacity:1"
             id="path671" /></g><g
           id="g673"
           transform="translate(160.5737,440.2812)"><path
             d="m 0,0 -33.485,8.978 -43.56,-97.399 c -24.046,-53.838 14.635,-110.938 65.094,-124.419 50.43,-13.568 112.494,16.541 118.556,75.199 l 10.998,106.118 -31.32,8.631"
             style="fill:none;stroke:#000000;stroke-width:20;stroke-linecap:round;stroke-linejoin:round;stroke-miterlimit:10;stroke-dasharray:none;stroke-opacity:1"
             id="path675" /></g><g
           id="g677"
           transform="translate(148.6226,227.4409)"><path
             d="M 0,0 -24.017,-89.663"
             style="fill:none;stroke:#000000;stroke-width:20;stroke-linecap:round;stroke-linejoin:round;stroke-miterlimit:10;stroke-dasharray:none;stroke-opacity:1"
             id="path679" /></g><g
           id="g681"
           transform="translate(124.6055,137.7783)"><path
             d="m 0,0 44.108,-59.149 c 9.7,-13.02 0.578,-33.256 -20.062,-28.089 l -88.534,23.7 c -20.409,5.861 -18.215,27.944 -3.291,34.382 z"
             style="fill:none;stroke:#000000;stroke-width:20;stroke-linecap:round;stroke-linejoin:round;stroke-miterlimit:10;stroke-dasharray:none;stroke-opacity:1"
             id="path683" /></g><g
           id="g685"
           transform="translate(268.6216,316.584)"><path
             d="m 0,0 c 22.487,5.312 48.035,2.28 66.278,-9.44 26.673,-17.118 68.934,-15.704 94.366,3.176"
             style="fill:none;stroke:#000000;stroke-width:20;stroke-linecap:round;stroke-linejoin:round;stroke-miterlimit:10;stroke-dasharray:none;stroke-opacity:1"
             id="path687" /></g><g
           id="g689"
           transform="translate(275.2324,380.1499)"><path
             d="m 0,0 109.693,29.387 43.532,-97.37 c 24.074,-53.867 -14.636,-110.967 -65.066,-124.419 -48.15,-12.961 -106.923,13.914 -117.43,67.435"
             style="fill:none;stroke:#000000;stroke-width:20;stroke-linecap:round;stroke-linejoin:round;stroke-miterlimit:10;stroke-dasharray:none;stroke-opacity:1"
             id="path691" /></g><g
           id="g693"
           transform="translate(363.3916,187.748)"><path
             d="M 0,0 24.017,-89.663"
             style="fill:none;stroke:#000000;stroke-width:20;stroke-linecap:round;stroke-linejoin:round;stroke-miterlimit:10;stroke-dasharray:none;stroke-opacity:1"
             id="path695" /></g><g
           id="g697"
           transform="translate(387.4087,98.0854)"><path
             d="m 0,0 -44.108,-59.149 c -9.729,-13.049 -0.578,-33.256 20.033,-28.118 l 88.534,23.729 c 20.438,5.861 18.244,27.944 3.32,34.353 z"
             style="fill:none;stroke:#000000;stroke-width:20;stroke-linecap:round;stroke-linejoin:round;stroke-miterlimit:10;stroke-dasharray:none;stroke-opacity:1"
             id="path699" /></g><g
           id="g701"
           transform="translate(202.5747,429.0229)"><path
             d="M 0,0 H 0.058"
             style="fill:none;stroke:#000000;stroke-width:20;stroke-linecap:round;stroke-linejoin:round;stroke-miterlimit:10;stroke-dasharray:none;stroke-opacity:1"
             id="path703" /></g></g></g></g></svg>
