<svg id="Layer_1" enable-background="new 0 0 96 96" viewBox="0 0 96 96" xmlns="http://www.w3.org/2000/svg"><path d="m11.7734 16.6828c0 4.4561 3.6309 8.082 8.0933 8.082 1.2729 0 2.515-.3168 3.6507-.8946l22.3659 27.1357v20.8146c0 2.6201-1.1313 5.1113-3.1035 6.8359l-9.0693 7.9307c-.3135.2744-.4243.7148-.2778 1.1045s.5195.6484.936.6484h31.9058c.417 0 .79-.2588.9365-.6484s.0352-.8301-.2783-1.1045l-9.0723-7.9336c-1.9707-1.7227-3.1006-4.2129-3.1006-6.833v-20.8156l21.8596-26.5209c.0112-.0123.0205-.0249.0311-.0377l6.8973-8.368c.2461-.2988.2979-.7119.1328-1.0625-.165-.3496-.5176-.5732-.9043-.5732h-55.1513c-.9798-3.4368-4.116-5.8535-7.7583-5.8535-4.4624-.0001-8.0933 3.6308-8.0933 8.0937zm41.5137 32.9648h-5.9311l-17.2026-20.858c.991-.4522 1.86-.9661 2.7026-1.4711 2.1899-1.3135 4.2588-2.5537 8.4678-2.5537 4.2158 0 6.2837 1.2402 8.4731 2.5527 2.3281 1.3965 4.7354 2.8408 9.5127 2.8408 4.7666 0 7.1719-1.4424 9.498-2.8369 1.3959-.8365 2.7465-1.6348 4.621-2.1101zm3.2568 30.5117 7.0674 6.1807h-26.5801l7.0649-6.1777c2.4067-2.1045 3.7871-5.1445 3.7871-8.3418v-20.169h4.8765v20.1689c.0001 3.1973 1.379 6.2364 3.7842 8.3389zm18.8189-57.2945c-3.5359.3345-5.6007 1.5529-7.5835 2.7418-2.1895 1.3125-4.2568 2.5518-8.4697 2.5518-4.2236 0-6.293-1.2412-8.4844-2.5557-2.3262-1.3955-4.7319-2.8379-9.5015-2.8379-4.7627 0-7.1689 1.4434-9.4966 2.8379-.9717.5827-1.9088 1.1313-3.0016 1.5768l-4.3104-5.2263-4.5322-5.5107h6.8516 53.8218zm-55.4961-12.2758c2.542 0 4.7583 1.5635 5.6543 3.8535h-7.6543c-.3867 0-.7388.2227-.9043.5732-.165.3496-.1138.7627.1318 1.0615l5.1089 6.2168c-.7407.3096-1.5327.4707-2.3364.4707-3.3599 0-6.0933-2.7285-6.0933-6.082 0-3.3603 2.7334-6.0937 6.0933-6.0937z"/></svg>