<svg id="Capa_1" enable-background="new 0 0 512 512" height="512" viewBox="0 0 512 512" width="512" xmlns="http://www.w3.org/2000/svg"><g><g><path d="m328.73 229.511c-4.142 0-7.5 3.358-7.5 7.5v8.996c0 4.142 3.358 7.5 7.5 7.5s7.5-3.358 7.5-7.5v-8.996c0-4.142-3.358-7.5-7.5-7.5z"/><path d="m306.552 240.944c-2.071-3.587-6.659-4.816-10.245-2.745-3.587 2.071-4.816 6.658-2.745 10.245l4.498 7.791c1.389 2.406 3.91 3.751 6.502 3.751 1.272 0 2.562-.325 3.743-1.006 3.587-2.071 4.816-6.658 2.745-10.245z"/><path d="m361.153 238.199c-3.588-2.073-8.174-.843-10.245 2.745l-4.498 7.791c-2.071 3.587-.842 8.174 2.745 10.245 1.181.682 2.471 1.006 3.743 1.006 2.592 0 5.113-1.345 6.502-3.751l4.498-7.791c2.072-3.587.843-8.174-2.745-10.245z"/><path d="m186.263 111.645c7.333 5.938 16.163 8.866 24.964 8.866 10.2 0 20.362-3.934 28.104-11.676 14.422-14.422 15.63-37.236 2.81-53.068-1.887-2.331-4.686-3.757-7.678-3.914-2.987-.162-5.908.964-8.021 3.078l-41.015 41.015c-2.112 2.112-3.234 5.035-3.078 8.02.156 2.992 1.583 5.791 3.914 7.679zm46.953-42.277c4.893 9.391 3.286 21.083-4.492 28.86-7.778 7.776-19.47 9.385-28.86 4.492z"/><path d="m451.607 107.022c1.982 1.982 4.679 3.092 7.47 3.092.183 0 .367-.004.55-.014 2.993-.157 5.792-1.583 7.68-3.915 12.82-15.832 11.612-38.646-2.81-53.068s-37.236-15.63-53.068-2.809c-2.331 1.888-3.757 4.687-3.914 7.679-.157 2.984.965 5.907 3.078 8.02zm2.284-43.298c7.777 7.777 9.385 19.47 4.492 28.86l-33.352-33.352c9.39-4.894 21.083-3.285 28.86 4.492z"/><path d="m499.395 275.519h-15.381c8.886-19.185 11.742-40.218 7.45-59.77-.627-2.858-2.859-5.09-5.717-5.717-7.494-1.645-15.206-2.231-22.949-1.84-1.136-4.406-2.763-8.719-4.889-12.866-7.531-14.689-20.332-25.567-36.044-30.629-8.065-2.598-16.417-3.447-24.566-2.695-.051-.203-.096-.408-.15-.611 9.927-3.943 19.336-9.617 27.755-17.057 2.616-2.312 4.178-5.633 4.286-9.113.106-3.457-1.234-6.842-3.68-9.287l-116.794-116.792c-2.444-2.445-5.821-3.784-9.286-3.68-3.48.107-6.802 1.669-9.113 4.286-32.094 36.322-31.545 90.966.463 126.689-.738.846-1.46 1.71-2.154 2.599-12.354-7.473-27.076-10.457-41.475-8.229-14.163 2.191-26.642 9.072-35.871 19.024-9.285-3.002-20.093-.684-30.848 6.425-.94-38.744-18.75-68.637-41.318-68.637-17.105 0-31.597 16.905-37.944 42.702-.472-.487-.948-.97-1.427-1.45-28.495-28.495-63.662-37.972-80.061-21.572-16.399 16.398-6.923 51.565 21.572 80.061.479.479.963.956 1.45 1.427-25.799 6.348-42.704 20.839-42.704 37.945 0 22.568 29.893 40.378 68.637 41.319-1.648 2.493-3.034 4.989-4.159 7.468h-38.854c-6.951 0-12.605 5.655-12.605 12.605v18.379c0 6.951 5.655 12.605 12.605 12.605h8.553c3.826 36.117 16.123 70.727 36.132 101.263 23.854 36.403 57.331 65.188 96.813 83.242 4.191 1.917 8.838 2.93 13.437 2.93h102.941c4.142 0 7.5-3.358 7.5-7.5s-3.358-7.5-7.5-7.5h-102.942c-2.461 0-4.951-.543-7.199-1.571-36.907-16.876-68.203-43.787-90.504-77.822-18.402-28.083-29.808-59.862-33.572-93.042h426.453c-3.764 33.18-15.17 64.958-33.572 93.042-22.302 34.035-53.598 60.945-90.504 77.822-2.248 1.028-4.738 1.571-7.199 1.571h-25.961c-4.142 0-7.5 3.358-7.5 7.5s3.358 7.5 7.5 7.5h25.96c4.599 0 9.245-1.013 13.437-2.93 39.481-18.054 72.958-46.839 96.812-83.242 20.009-30.536 32.306-65.146 36.132-101.263h8.553c6.951 0 12.605-5.654 12.605-12.605v-18.379c.001-6.95-5.654-12.605-12.604-12.605zm-20.978-41.835c.103 14.13-3.816 28.612-11.214 41.835h-30.621zm-10.588-10.624-47.883 47.883c-2.287-8.906-5.847-17.302-10.474-24.992 16.974-14.882 38.037-23.046 58.357-22.891zm-54.751-88.343c-6.596 5.476-13.858 9.707-21.481 12.734-2.451-4.48-5.444-8.635-8.902-12.376 7.087-2.366 13.854-5.951 19.947-10.794zm-70.436-70.436 27.733 27.733c-2.658 1.185-5.562 1.808-8.565 1.808-5.616 0-10.887-2.179-14.844-6.135-6.318-6.318-7.759-15.693-4.324-23.406zm-42.707-42.707 10.447 10.447c-5.617 7.085-9.739 15.285-12.044 24.077-1.05 4.006 1.346 8.106 5.353 9.157 4.007 1.048 8.106-1.345 9.157-5.353 1.63-6.216 4.432-12.052 8.226-17.19l10.543 10.543c-9.049 13.943-7.471 32.823 4.744 45.037 6.789 6.79 15.828 10.529 25.45 10.529 7.066 0 13.813-2.023 19.589-5.783l10.546 10.546c-7.28 5.392-15.689 8.573-24.304 9.563-7.067-3.984-15.032-6.637-23.595-7.568-3.311-.36-6.611-.445-9.872-.274-2.9-1.888-5.652-4.091-8.194-6.633-5.208-5.208-9.138-11.352-11.679-18.261-1.43-3.887-5.738-5.88-9.628-4.45-3.888 1.43-5.88 5.74-4.45 9.628 3.297 8.964 8.395 16.935 15.15 23.69.004.004.008.007.011.011-4.753 1.814-9.269 4.209-13.444 7.128-26.409-29.489-27.391-74.264-2.006-104.844zm-50.491 124.058c12.925-1.996 26.2 1.548 36.42 9.733 1.699 1.36 3.903 1.917 6.045 1.522 2.14-.394 4.004-1.697 5.107-3.573 9.326-15.85 27.156-24.81 45.409-22.823 19.82 2.155 35.424 16.46 40.213 34.684-7.163 2.487-13.892 6.285-19.792 11.302-10.589-9.814-24.408-15.71-38.958-16.437-24.306-1.206-46.613 11.741-57.718 32.818-5.453-1.874-11.14-2.967-16.987-3.259-5.822-.29-11.492.26-16.912 1.51.451-13.387-2.453-24.879-8.558-32.556 6.826-6.733 15.724-11.373 25.731-12.921zm-19.201 61.672c4.96-1.798 10.294-2.781 15.832-2.781.782 0 1.57.02 2.359.059 6.404.32 12.552 1.905 18.271 4.713 1.897.931 4.099 1.018 6.063.242 1.965-.777 3.511-2.347 4.258-4.324 7.206-19.075 25.743-31.211 46.112-30.191 13.063.652 25.348 6.808 33.705 16.889 1.389 1.675 3.437 2.665 5.612 2.711 2.184.059 4.265-.854 5.724-2.467 12.334-13.64 31.602-18.813 49.083-13.182 11.898 3.833 21.592 12.071 27.295 23.195 1.329 2.592 2.396 5.271 3.215 8.003-16.765 3.576-33.097 11.631-47.059 23.545-17.289-20.494-43.137-33.542-71.986-33.542-45.48 0-83.51 32.411-92.264 75.344h-18.829l-5.61-20.937c-.519-1.937-.184-4.028.921-5.738 3.099-4.797 5.929-9.93 8.412-15.253 4.155-8.904 7.099-17.791 8.886-26.286zm154.646 54.63c-2.071-3.587-6.659-4.815-10.245-2.745l-7.791 4.498c-3.587 2.071-4.816 6.658-2.745 10.245.344.596.758 1.125 1.224 1.586h-73.204c.466-.461.88-.991 1.224-1.586 2.071-3.587.842-8.174-2.745-10.245l-7.791-4.498c-3.587-2.072-8.174-.842-10.245 2.745s-.842 8.174 2.745 10.245l5.784 3.339h-29.264c8.476-34.594 39.725-60.344 76.894-60.344s68.419 25.75 76.894 60.344h-29.264l5.784-3.339c3.587-2.071 4.816-6.658 2.745-10.245zm-295.755-122.454c3.892 3.891 7.494 8.057 10.705 12.379 1.847 2.487 5.036 3.581 8.018 2.757 2.986-.825 5.157-3.4 5.466-6.482 2.852-28.489 15.352-45.514 25.789-45.514 12.467 0 26.357 23.354 26.357 56.866 0 4.28-.243 8.59-.723 12.811-.365 3.212 1.369 6.297 4.303 7.654 2.935 1.356 6.408.681 8.62-1.677 11.02-11.75 22.89-17.128 30.24-13.701 11.299 5.269 14.019 32.305-.144 62.677-2.193 4.704-4.689 9.23-7.417 13.453-3.401 5.263-4.425 11.736-2.812 17.76l4.57 17.055h-3.602l-27.569-27.569 7.555-47.698c.648-4.091-2.144-7.933-6.234-8.581-4.088-.645-7.933 2.144-8.581 6.234l-5.85 36.935-21.952-21.952 7.555-47.698c.648-4.091-2.144-7.933-6.234-8.581-4.087-.648-7.933 2.144-8.581 6.234l-5.85 36.935-85.27-85.27c12.009-2.063 32.667 5.998 51.641 24.973zm407.866 164.628h-468.981v-13.589h97.981c4.142 0 7.5-3.358 7.5-7.5s-3.358-7.5-7.5-7.5h-44.26c2.33-3.387 5.307-6.846 8.914-10.23 2.358-2.212 3.034-5.686 1.676-8.62-1.237-2.674-3.908-4.351-6.804-4.351-.282 0-.566.016-.851.048-4.219.48-8.529.724-12.811.724-33.51 0-56.864-13.891-56.864-26.358 0-10.438 17.024-22.938 45.514-25.789 3.082-.309 5.657-2.48 6.482-5.465s-.27-6.171-2.756-8.018c-4.323-3.211-8.488-6.813-12.38-10.705-11.312-11.312-19.591-24.139-23.312-36.116-1.856-5.976-2.394-11.29-1.666-15.531l85.276 85.276-36.935 5.85c-4.091.648-6.882 4.49-6.234 8.581.585 3.694 3.773 6.328 7.398 6.328.39 0 .785-.03 1.183-.093l47.698-7.555 21.952 21.952-36.935 5.85c-4.091.648-6.882 4.49-6.234 8.581.585 3.694 3.773 6.328 7.398 6.328.39 0 .785-.03 1.183-.093l47.698-7.555 16.962 16.962h-16.292c-4.142 0-7.5 3.358-7.5 7.5s3.358 7.5 7.5 7.5h336z"/></g></g></svg>