<?xml version="1.0" encoding="UTF-8"?>
<svg id="Ebene_2" data-name="Ebene 2" xmlns="http://www.w3.org/2000/svg" viewBox="0 0 209.86 86.81">
  <defs>
    <style>
      .cls-1 {
        fill: #d0b88b;
      }

      .cls-2 {
        fill: #d0b17d;
      }
    </style>
  </defs>
  <g id="Ebene_6" data-name="Ebene 6">
    <g>
      <g>
        <path class="cls-1" d="M119.39,6.99c1.55,4.98,4.83,8.45,9.16,11.25,1.7,1.1,2.67,3.24,3.16,5.34.37,1.6.98,1.6,2.24.75,3.14-2.13,6.68-3.41,10.45-3.23,7.84.36,11.73,6.54,9.41,14.49-1.06,3.64-3.29,6.6-5.68,10.11,2.35-.62,4-1.79,4.81-3.32,1.69-3.2,3.69-6.15,4.44-10,.63-3.27.81-5.85-.78-8.76-1.06-1.93-.47-4.14.15-6.17,1.13-3.7,4.64-5.22,8.1-3.47,2.07,1.04,4.1,2.21,6.42,2.45,3.21.34,6.25.99,9.23-1.75,3.28-3.01,9.64-1.96,12.52,1.49,1.16,1.39,2.42,2.13,4.16,2.63,5.03,1.45,7.32,4.78,7.06,9.46-.13,2.45-1.65,3.92-3.48,5.25.93.94,1.9.5,2.73.65,4.56.79,6.8,4,6.31,8.5-.62,5.72-3.06,10.74-5.62,15.74-.51.99-1.5,1.87.08,3.03,4.4,3.22,4.8,7.85,3.21,12.43-3.05,8.78-11.74,14.35-22.36,12.65-4.35-.7-8.48-5.85-8.56-10.82-.05-2.96-1.14-2.99-3.36-2.26-5.16,1.69-9.92,4.31-14.93,6.34-5.4,2.19-10.86,3.96-16.9,2.73-6.16-1.26-10.31-6.76-9.13-12.98.34-1.78-.06-2.46-1.67-2.63-4.61-.48-8.56-2-10.84-6.45-.84-1.63-1.88-.49-2.72.06-3.08,1.99-6.28,3.42-10.1,3.32-3.95-.11-7.31-1.31-9.65-4.57-.89-1.24-1.41-1.29-2.5-.25-3.44,3.27-7.47,4.98-12.33,4.19-.79-.13-1.58-.14-2.33.3-4,2.36-7.74,1.18-11.22-1.11-1.15-.76-1.81-.58-2.92-.09-4.63,2.09-9.29,1.23-12.37-2.12.16-.5.48-.81,1.02-.85,3.84,1.83,7.69,2.79,11.75.49,1.27-.72,2.5,0,3.63.76,3.01,2.01,6.13,3,9.52.81.91-.59,1.92-.49,2.92-.33,4.27.68,7.85-.63,11.02-3.54,2.33-2.14,3.12-1.98,5.22.3,3.76,4.07,8.82,5.13,13.92,2.92,1.3-.56,2.44-1.39,3.65-2.1,2.75-1.6,4.07-1.36,5.66,1.41,1.49,2.59,3.74,3.79,6.5,4.39,1.38.3,2.8.28,4.16.66,1.69.47,2.48,1.36,2.07,3.3-1.53,7.17,2.36,12.21,9.71,12.57,3.56.17,6.94-.78,10.28-1.96,5.3-1.88,10.15-4.82,15.5-6.58,1.24-.41,2.44-.93,3.71-1.24,3.06-.74,4.4.16,4.63,3.27.18,2.35.71,4.47,2.17,6.43,3.07,4.1,7.32,4.22,11.69,3.55,7.78-1.2,13.88-8.47,13.49-15.73-.11-2.11-.85-3.85-2.42-5.32-2.57-2.41-2.61-3.09-.94-6.21,2.43-4.51,4.58-9.12,5.33-14.29.33-2.29.1-4.23-1.97-5.54-2.31-1.47-4.94-1.82-7.06-.12-2.57,2.07-4.56,1.99-6.74-.34-.84-.9-2.08-1.15-3.25-1.47-1.63-.45-3.52-.68-3.13-3.16.36-2.28,2.72-4.25,4.89-4.04,1.38.13,2.4.85,3.31,1.87,2.18,2.46,4.57,2.73,6.68.82,2.02-1.84,2.24-5.22.38-7.35-1.28-1.47-2.9-2.5-4.79-2.97-1.92-.48-3.41-1.49-4.74-2.97-2.44-2.72-6.83-3.56-9.54-1.29-4.07,3.4-8.35,2.65-12.8,1.66-1.57-.35-3.01-1.09-4.47-1.75-3.25-1.48-5.04-.56-6.04,2.9-.63,2.19-.34,4.24.96,6.02,1.35,1.86.93,3.49.47,5.59-.85,3.87-2.22,7.38-4.13,10.83-1.82,3.31-4.73,5.09-7.84,6.73-.99.52-2.22.69-2.98-.45-.66-1-.07-1.95.61-2.72,2.12-2.43,4.07-4.96,5.33-7.97,1.65-3.94,2.91-8.06-.54-11.52-3.26-3.27-7.42-3-11.55-1.57-1.64.57-3.01,1.59-4.5,2.41-2.19,1.2-3.46.9-4.24-1.42-1.4-4.15-4.01-7.05-7.9-9-3.31-1.66-2.8-5.25-3.79-8.08.13-.51.44-.84.95-.98Z"/>
        <path class="cls-1" d="M119.39,6.99c-.2.24-.4.49-.61.73-1.78-.35-2.34-2.07-3.47-3.14-2.55-2.4-3.46-2.63-6.45-.72-1.75,1.12-3.5.44-5.25.45-3.72,0-3.88.09-4.53,3.81-.47,2.73-3.26,4.12-5.37,2.32-4.59-3.89-9.79-3.38-15.09-2.72-2.66.33-5.21,1.48-7.97,1.09-.63-.21-1.18-.53-1.47-1.17,6.05-1.98,12.26-2.79,18.59-2.28,2.52.2,4.76,1.31,6.75,2.97,1.31,1.1,2.32,1.08,2.42-1.1.19-4.3,2.24-5.98,6.66-5.28,2.17.34,3.98.48,5.78-1.19,1.43-1.32,3.26-.75,4.71.29,2.19,1.58,4.22,3.35,5.32,5.94Z"/>
        <path class="cls-1" d="M28.32,6.03c-1.4,1.23-3.41-.3-4.78,1.07-.6,1.08-1.76,1.24-2.75,1.68-6.24,2.76-11.67,6.54-15.71,12.17-1.76,2.44-2.67,5.14-2.96,8.07-.42,4.22,1.55,7.19,5.61,8.91,1.47.62,4.03.8,2.22,3.56-1.24.45-1-.74-1.38-1.24-7.1-.87-10.08-7.98-7.81-14.98,2.52-7.8,8.47-12.61,15.31-16.48,3.8-2.15,7.75-3.72,12.26-2.75Z"/>
        <path class="cls-1" d="M8.56,40.24c.39.41.78.82,1.16,1.22.79,1.24-.05,2.31-.4,3.41-1.09,3.42-2.33,6.77-2.47,10.46-.4,11.03,7.25,13.15,15.34,10.47.86-.28,1.59-.87,2.46-1.11,1.48-.41,2.8-.31,3.37,1.46-.12.53-.33.92-.98.68-1.12-.63-2.03-.08-3.07.39-2.85,1.31-5.93,2.03-9.02,1.69-6.06-.66-9.57-4.56-10.21-10.69-.55-5.26,1.2-10.04,2.87-14.86.36-1.02,1.04-1.96.95-3.12Z"/>
        <path class="cls-1" d="M27.03,66.83c.24-.22.48-.43.72-.65.67-.45,1.37-.24,2.02-.03,6.43,2.07,11.5-.66,16.2-4.6,1.46-1.22,2.62-2.77,4.11-3.95,2.22-1.76,3.57-1.15,4.23,1.8-.24.25-.48.5-.72.75-.95-1.41-1.69-1.73-3.07-.18-3.88,4.39-8.34,7.87-14.47,8.77-3.37.5-6.27-.08-9.03-1.93Z"/>
        <path class="cls-1" d="M51.23,16.17c-.76-.19-.31,2.79-1.8.7,1.15-.76.17-1.62.08-2.4-.87-7.09,5.36-12.68,11.67-10.39.91.33,2.04.79,2.48,1.53,1.34,2.29,3.22,2.59,5.51,2.04.5.11,1.05.13,1.34.66-2.46,2.26-4.96,2.4-6.97.18-2.05-2.27-4.3-3.64-7.4-2.37-2.9,1.19-4.63,4.26-4.49,7.8.03.79.28,1.6-.42,2.25Z"/>
        <path class="cls-1" d="M197.63,34.46c-1.19,2.04-2.07,2.79-3.59,1.29-1.24-1.21-2.92-1.69-4.49-2.35-.61-.26-2.51.28-1.58-1.59.62-1.25,1.43-2.31,3.04-1.42.5.28,1.01.68,1.32,1.15,1.15,1.75,2.56,3.07,5.3,2.92Z"/>
        <path class="cls-1" d="M51.93,16.3c-1.13-1.09-1.55.91-2.5.57-4.42-3.82-8.7-1.67-13.04.63-.65-5.52-1.89-10.29-8.07-11.47-1.51.89-3.61-.86-4.87,1.11,1.06,1.03,2.45.69,3.71.87,3.32.46,5.68,2.55,6.54,5.77.31,1.17.37,2.37.55,3.56.36,2.3,1.41,2.86,3.57,2,.65-.26,1.24-.64,1.86-.98,2.5-1.39,5.12-2.09,7.67-.38,2.59,1.74,3.06,4.55,2.98,7.45-.03,1.19-.49,2.37-.25,3.58.18.95.62,1.73,1.68,1.85.92.1,1.43-.56,1.87-1.27,2.57-4.18,1.87-9.75-1.69-13.3ZM52.64,25.32c-.37-1.9-.75-3.79-1.23-6.26,3.42,1.93,1.3,4.25,1.23,6.26Z"/>
        <path class="cls-1" d="M194.53,63.58c3.17.33,6.7-.1,8.02,3.59,1.35,3.79-.11,7.22-2.66,9.96-3.09,3.31-6.91,5.38-11.67,5.3-4.51-.08-7.1-2.09-7.93-6.52-.35-1.88-.42-3.81.2-5.66.67-2.01-.21-2.46-2.03-2.37-6.48.33-12.2,3.05-17.89,5.73-5.76,2.72-11.49,5.21-18.08,4.66-3.93-.33-6.88-3.25-6.8-6.96.03-1.31.24-2.62,2.05-1.97,6.96,2.51,13.66.43,20.34-1.21,6.61-1.62,13.13-3.62,20-3.84.9-.03,1.81-.07,2.7-.01,3.36.22,3.8.85,3.01,4.16-1.25,5.17,1.18,7.93,6.48,7.18,3.71-.53,6.81-2.25,9.05-5.37,1.1-1.53.72-2.58-1.07-2.65-3.35-.14-6.65.26-9.07,2.97-.71.79-.99,2.17-2.46,1.2-1.27-.84-2.04-1.95-1.57-3.55.35-1.19,1.13-2.08,2.1-2.85,1.51-1.21,5.19-6.98,6.02-9.66-1.66,1.9-2.89,3.31-4.12,4.72-1.78,2.03-4.02,2.74-6.51,1.78-2.48-.96-3.23-3.23-3.12-5.66.3-6.6,3.05-12.38,6.39-17.9.98-1.62,2.49-.82,3.75-.18,1.66.83,2.39,2.18,1.62,3.97-.79,1.84-1.76,3.6-2.6,5.42-.76,1.64-1.43,3.32-1.3,5.19.06.85-.31,1.91.88,2.29.89.28,1.55-.24,2.1-.86,3.38-3.76,6.31-7.88,7.6-12.79.64-2.46,1.58-3.53,4.05-3.16,2.89.44,3.19,2.46,2.65,4.72-1.66,6.91-4.47,13.27-9.18,18.69-.37.43-1,.71-.95,1.66Z"/>
        <path class="cls-1" d="M109.11,18.51c-4.37-1.11-8.06,0-12.38,1.92,2.32-3.58,5.52-4.29,8.91-5.42-2.73-2.14-5.57-.84-8.06-1.44,2.16-2.15,3.46-2.23,12.13-.67-1.84-3.3-5.52-3.93-8.51-6.3,5.86-.55,9.22,2.41,12.22,6.75.38-3.13-1.09-5.23-2.16-8.26,3.75,2.91,5.45,6.06,5.48,10,.02,1.72.58,2.5,2.27,2.85,4.08.84,6.54,3.51,8.28,8-2.52-1.86-3.72-4.57-7-4.39,1.4,3.4,2.76,6.69,1.38,10.89-1.35-3.25-1.22-6.63-4.08-9.25-.4,2.94.34,5.81-2.12,8-.39-2.29.87-4.43-.53-6.47-1.53,1.28-1.73,3.58-3.9,4.34-.38-1.88.97-3.4.97-5.11,0-.87.47-2.05-.34-2.52-.97-.57-1.53.63-2.16,1.19-3.54,3.19-5.54,7.29-6.96,11.75-1.62,5.06-3.61,9.98-6.17,14.66-1.96,3.59-4.59,6.55-8.05,8.76-2.3,1.47-4.73,1.68-7.14.46-2.34-1.18-2.89-3.36-2.96-5.82-.18-6.18,2.55-11.46,5.17-16.74,1.15-2.32,3.24-1.6,4.97-.68,1.88,1.01,2,2.57.86,4.32-2.02,3.11-4.11,6.18-5.99,9.38-.8,1.37-2.34,3.25-.65,4.56,1.43,1.11,2.85-.7,4.13-1.6,2.13-1.49,3.38-3.65,4.6-5.86,5.24-9.5,8.93-20.01,17.81-27.29Z"/>
        <path class="cls-1" d="M167.49,53.25c.02-3.26.99-6.32,2.15-9.3,2.09-5.41,4.33-10.77,6.49-16.16.24-.6.99-1.33.32-1.84-.43-.33-1.34-.14-2.01-.03-3.25.49-6.47,1.3-9.8.43-3.28-.86-5.25-3.09-4.9-5.87.26-2.03.97-3.21,3.37-1.97,4.27,2.22,8.97,2.68,13.68,3.02,1.74.13,2.92-.37,4.06-1.86,2.76-3.61,7.17-2.91,8.78,1.36.47,1.24,1.25,1.01,2.08,1.16,2.07.38,4.18.77,5.86,2.14,1.4,1.14,2.43,2.67,1.13,4.42-.81,1.09-1.98,2.2-3.27.19-1.54-2.4-4.14-3.02-6.69-3.6-1.5-.34-2.62.07-3.54,1.5-5.39,8.32-9.58,17.12-11.47,26.92-.29,1.52-.04,2.95.52,4.4.57,1.48-.16,2.03-1.66,1.8-3.31-.5-5.09-2.82-5.09-6.7Z"/>
        <path class="cls-1" d="M21.15,25.83c1.79-3.03,3.59-6.06,5.42-9.15-1.43-.61-2.29.32-3.2.79-5.09,2.65-8.77,6.59-10.74,12.03-.36.98-1.16,1.87.5,2.67,1.35.65.19,1.61-.38,2.1-1.6,1.39-3.48,1.89-5.59,1.25-2.12-.65-2.97-2.34-3.31-4.27-.46-2.66.19-5.17,1.56-7.5,3.62-6.15,9.05-10.19,15.52-12.75,5.62-2.22,11.12-.94,9.75,8.17-2,1.63-3.86,3.4-5.39,5.5-.7.96-1.51,1.89-2.62,2.37-1.11.49-1.97.39-1.51-1.21Z"/>
        <path class="cls-1" d="M21.15,25.83c.35,1.75,1.17.9,1.78.25,1.62-1.73,3.15-3.54,4.74-5.3.8-.89,1.61-1.8,3-1.61-1.31,5.2-4.34,9.64-6.34,14.54-2.49,6.12-5.04,12.21-6.8,18.59-1.37.77-1.52,2.12-1.87,3.49-.74,2.95-2.56,5.19-5.21,6.73-2.2-2.47-2.32-5.47-1.89-8.48,1.15-7.96,4.88-14.94,8.64-21.88,1.18-2.18,2.62-4.23,3.95-6.33Z"/>
        <path class="cls-1" d="M168.91,28.11c.3.06,1.27.05,2.03.44,1.66.84,2.29,2.13.44,3.39-2.31,1.57-4.74,2.96-7.15,4.36-1.05.61-1.96-.06-2.7-.73-1.03-.92-.96-2.14-.57-3.34.84-2.52,3.78-4.16,7.94-4.12Z"/>
        <path class="cls-1" d="M162.76,37.89c-2.15-1.27-3.1.02-3.94,1.7-.41.81-.84,1.6-1.25,2.4-3.5,6.93-14.03,12.51-21.62,11.46-3.4-.47-5.8-2.72-5.7-5.9.18-6.08,1.95-11.62,6.41-16.03,1.04-1.03,2.17-2,3.69-1.14,1.47.83,1.36,2.37,1.11,3.77-.58,3.27-2.29,5.93-4.62,8.25-.67.67-1.54,1.53-.89,2.62.63,1.05,1.8.78,2.75.59.96-.2,1.97-.54,2.77-1.09,4.31-3.01,7.01-7.18,7.87-12.32.7-4.17-1.49-6.29-5.79-6.5-3.42-.17-6.25,1.1-8.9,3.05-4.73,3.49-8.21,8.08-10.18,13.51-1.5,4.14-4.52,6.45-7.88,8.64-2.1,1.37-4.34,2.57-6.83,3.04-1.89.36-3.46-.43-3.94-2.39-.52-2.14,1.52-1.77,2.55-2.08,5.1-1.56,8.51-4.79,9.97-9.91.91-3.17-.82-5.3-4.13-5.38-1.44-.03-2.77.34-4.02,1.05-5.62,3.19-9.05,8.05-10.85,14.17-.88,2.99-.75,5.92,1.54,8.12,2.44,2.35,5.58,2.55,8.72,1.48,3.38-1.16,6.17-3.24,8.68-5.76.93-.94,1.64-2.32,3.5-2.3,0,1.06-.07,2.06.01,3.04.41,4.67,2.27,7.47,6.14,8.21,3.93.75,7.94.91,11.87-.56,5.48-2.06,9.77-5.67,13.8-10.67-.3,2.42-.54,4.15-.72,5.88-.57,5.17,1.7,7.27,6.7,6.19,1.5-.33,2.75-.83,1.48-2.81-.7-1.09-.72-2.46-.77-3.78-.19-5.05,2.13-9.31,4.24-13.62,1.18-2.41.21-3.74-1.76-4.91ZM110,39.08c.4-.45.97-.81,1.6-.49.66.33.52,1.01.48,1.59-.18,2.57-2.93,5.62-5.97,6.48.34-3.1,1.95-5.43,3.89-7.58Z"/>
        <path class="cls-1" d="M91.62,13.48c-.33-2.06-1.94-2.86-3.78-3.38-1.37-.39-2.74-.53-4.15-.54-6.58-.05-12.81,2.11-19.21,3.13-1.84.29-2.83.61-3.35-1.75-.58-2.63-2.92-3.65-5.05-2.67-1.78.82-2.76,2.34-2.89,4.26-.13,1.9.33,3.75,2.25,4.52,1.81.72,2,1.93,1.85,3.56-.68,7.38-3.14,14.25-6.2,20.9-2.6,5.66-5.6,11.1-11.28,14.46-2.15,1.27-3.88,1.51-5.35-.83-3.01,1.59-4.17,5.13-7.13,6.78,1.21,1.89,3.11,2.4,5.17,2.49,5.23.24,9.22-2.35,12.69-5.86,6.28-6.36,10.01-14.19,12.53-22.64,1.52-5.08,2.6-10.27,3.32-15.54.14-1.03.03-2.39,1.89-2.52,6.09-.4,12.16-1.21,18.26-1.38,2.53-.07,5.83-.6,6.98,3.16.36,1.17,1.12.3,1.59-.11,1.86-1.62,2.21-3.78,1.85-6.04ZM57.16,12.97c-.77.05-.99-.54-1.06-1.16-.04-.41.1-.85.58-.89.81-.07.92.57,1.06,1.11-.02.47-.09.91-.58.94Z"/>
        <path class="cls-1" d="M45.16,19.68c-1.98-1.13-3.91-.33-5.61.85-2.51,1.75-4.42,4.09-5.87,6.75-3.97,7.27-6.56,15.03-7.79,23.22-.49,3.25-2.29,5.47-5.46,6.34-1.84.5-2.96-.03-2.92-2.13.01-.8,0-1.6.01-2.4-1.17-.31-1.83.57-1.95,1.35-.54,3.67-3.21,6.04-5.13,8.87.35.33.65.79,1.07.98,4.38,1.92,8.41.92,12.13-1.69,1.37-.96,2.51-1.7,3.69.12,3.92-.64,4.86-4.42,7.13-6.78-.73-2.37-.27-4.27,1.44-6.28,2.25-2.65,4.08-5.69,5.9-8.67,2.89-4.75,5.02-9.82,5.36-15.46.11-1.92-.11-3.97-2-5.05ZM44.12,27.63c-1.72,5.75-4.99,10.58-8.94,15.06.9-6.86,3.01-13.26,6.53-19.17.4-.66.85-1.52,1.82-1.29,1.1.26,1.12,1.24,1.18,2.17.07,1.13-.28,2.17-.59,3.23Z"/>
        <path class="cls-1" d="M74.48,39.83c-.72-.28-1.39-.23-1.65-1.33-1.12-4.6-4.37-5.93-8.09-3.1-5.89,4.49-8.58,10.87-9.79,16.89,0,4.84,1.78,6.56,5.53,6.62,2.7.04,4.48-1.52,6.21-3.22,1.14-1.12,1.7-1.43,2.32.52.9,2.81,3.16,3.99,6.08,3.93.9-.02,1.76-.18,1.12-1.37-2.51-4.59-.93-8.94.7-13.29,1.09-2.92.43-4.55-2.41-5.67ZM65.68,51.06c-1.41.68-2.84,1.14-4.23.09-1.3-.99-1.27-2.49-.94-3.85.78-3.27,2.39-6.13,4.8-8.48.78-.76,1.79-1.47,2.96-.78,1.28.75.78,1.83.39,2.9-.75,2.04-.72,2.06,2.19,2.04-.55,3.62-1.89,6.5-5.18,8.09Z"/>
      </g>
      <g>
        <path class="cls-2" d="M17.44,70.78h2.06v4.7l3.85-4.7h2.47l-3.93,4.78,3.97,5.01h-2.63l-3.74-4.87v4.87h-2.06v-9.79Z"/>
        <path class="cls-2" d="M28.75,80.56h-2.15v-9.79h2.15v9.79Z"/>
        <path class="cls-2" d="M32.92,72.5h-3.16v-1.7h8.47v1.7h-3.18v8.07h-2.13v-8.07Z"/>
        <path class="cls-2" d="M43.26,72.45c-.85,0-1.47.27-1.84.81-.38.54-.56,1.43-.56,2.67,0,1.07.18,1.83.54,2.27.36.44.98.66,1.86.66h3.38v1.7h-3.48c-.77,0-1.37-.07-1.81-.2-.44-.13-.85-.35-1.24-.66-.5-.4-.88-.92-1.13-1.56-.25-.64-.38-1.41-.38-2.3,0-1.73.38-3.01,1.13-3.83.75-.82,1.91-1.23,3.49-1.23h3.42v1.67h-3.38Z"/>
        <path class="cls-2" d="M50.21,70.78v3.97h3.77v-3.97h2.06v9.79h-2.06v-4.09h-3.77v4.09h-2.06v-9.79h2.06Z"/>
        <path class="cls-2" d="M62.1,72.48c-.74,0-1.31.19-1.69.56s-.59.94-.63,1.71h5.69v1.71h-5.71c0,.85.19,1.46.54,1.84.36.37.95.56,1.79.56h3.38v1.7h-3.48c-.77,0-1.37-.07-1.81-.2s-.85-.35-1.24-.66c-.5-.4-.88-.92-1.13-1.56-.25-.64-.38-1.41-.38-2.3,0-1.73.37-3.01,1.12-3.83.75-.82,1.91-1.23,3.49-1.23h3.42v1.7h-3.38Z"/>
        <path class="cls-2" d="M67.28,70.78h2.6l4.01,7.03-.1-7.03h2.1v9.79h-2.39l-4.21-7.4.09,7.4h-2.11v-9.79Z"/>
        <path class="cls-2" d="M91.51,76.54c-.32,1.43-.89,2.49-1.71,3.17-.82.69-1.92,1.03-3.31,1.03-1.11,0-1.98-.24-2.61-.72-.64-.48-.96-1.13-.96-1.96,0-.49.11-.93.33-1.31.22-.38.55-.71.99-.98-.44-.27-.77-.61-1-1.02s-.34-.87-.34-1.39c0-.81.26-1.45.78-1.9.52-.46,1.25-.69,2.18-.69h3.3v1.81h-2.78c-.45,0-.8.1-1.07.3-.26.2-.39.47-.39.8,0,.37.11.66.32.87s.52.31.92.31h.67v1.68h-.64c-.35,0-.63.11-.85.32s-.32.49-.32.84c0,.39.14.7.43.94.29.24.67.35,1.16.35.74,0,1.33-.2,1.78-.6.45-.4.77-1.02.97-1.85h-1.38v-1.68h4.75v1.68h-1.21Z"/>
        <path class="cls-2" d="M104.81,80.56h-5.39v-9.79h5.03c.63,0,1.15.04,1.55.11.4.07.72.18.96.34.36.23.63.52.82.88.19.36.28.77.28,1.23,0,.55-.12,1.01-.35,1.39-.24.38-.6.7-1.11.96.51.21.88.5,1.12.86.24.36.36.82.36,1.36,0,.91-.27,1.59-.8,2.02-.53.43-1.36.65-2.48.65ZM101.48,72.54v2.26h3.01c.47,0,.81-.09,1.03-.28.22-.18.33-.47.33-.86s-.11-.68-.33-.86c-.22-.18-.56-.27-1.03-.27h-3.01ZM104.53,78.83c.47,0,.81-.09,1.03-.28.21-.18.32-.47.32-.87s-.11-.69-.32-.88c-.22-.19-.56-.28-1.02-.28h-3.04v2.3h3.04Z"/>
        <path class="cls-2" d="M112.52,70.78h2.18l4.17,9.79h-2.29l-.9-2.33h-4.25l-.87,2.33h-2.18l4.14-9.79ZM113.53,72.72l-1.43,3.77h2.92l-1.48-3.77Z"/>
        <path class="cls-2" d="M119.57,70.78h5.07c1.18,0,2.05.24,2.6.71.55.47.83,1.22.83,2.23,0,.75-.17,1.36-.51,1.84-.34.47-.83.78-1.47.92l2.44,4.09h-2.32l-2.16-3.85h-2.42v3.85h-2.06v-9.79ZM124.15,72.52h-2.52v2.46h2.52c.68,0,1.16-.09,1.42-.28.27-.19.4-.51.4-.96s-.13-.76-.39-.95c-.26-.18-.74-.28-1.43-.28Z"/>
      </g>
    </g>
  </g>
</svg>